<?xml version="1.0" encoding="UTF-8" standalone="no"?>
<svg xmlns:svg="http://www.w3.org/2000/svg" xmlns="http://www.w3.org/2000/svg" viewBox="0 0 128 128" width="128" height="128">
  <title>GPay</title>
  <g transform="matrix(0.87864852,0,0,0.87864852,1.9923074,2.4966916)">
    <path d="m 141.14,71.639965 a 85.79,85.79 0 0 0 -1.24,-14.64 H 72 v 27.73 h 38.89 A 33.33,33.33 0 0 1 96.51,106.61 v 18 h 23.21 c 13.59,-12.53 21.42,-31.060035 21.42,-52.970035 z" style="fill:#4285f4" />
    <path d="m 72,142 c 19.43,0 35.79,-6.38 47.72,-17.38 l -23.21,-18 C 90.05,111 81.73,113.5 72,113.5 53.22,113.5 37.28,100.83998 31.58,83.779965 H 7.67 V 102.33 A 72,72 0 0 0 72,142 Z" style="fill:#34a853" />
    <path d="m 31.58,83.779965 a 43.14,43.14 0 0 1 0,-27.56 v -18.55 H 7.67 a 72,72 0 0 0 0,64.660035 z" style="fill:#fbbc04" />
    <path d="m 72,26.499965 a 39.09,39.09 0 0 1 27.62,10.8 v 0 l 20.55,-20.55 A 69.18,69.18 0 0 0 72,-2.0000343 72,72 0 0 0 7.67,37.669965 l 23.91,18.55 c 5.7,-17.06 21.64,-29.72 40.42,-29.72 z" style="fill:#ea4335" />
  </g>
</svg>
