<?xml version="1.0" encoding="UTF-8" standalone="no"?>
<svg xmlns="http://www.w3.org/2000/svg" width="32" height="32" version="1.1">
  <title>PayPal</title>
  <path style="fill:#253b80" d="m 9.4935449,30.010287 0.5230001,-3.322 -1.1650001,-0.027 h -5.563 l 3.866,-24.5129996 a 0.316,0.316 0 0 1 0.314,-0.268 h 9.3800001 c 3.114,0 5.263,0.648 6.385,1.927 0.526,0.6 0.861,1.227 1.023,1.917 0.17,0.724 0.173,1.589 0.007,2.644 l -0.012,0.077 v 0.676 l 0.526,0.298 a 3.69,3.69 0 0 1 1.065,0.8119996 c 0.45,0.513 0.741,1.165 0.864,1.938 0.127,0.795 0.085,1.741 -0.123,2.812 -0.24,1.232 -0.628,2.305 -1.152,3.183 a 6.547,6.547 0 0 1 -1.825,2 c -0.696,0.494 -1.523,0.869 -2.458,1.109 -0.906,0.236 -1.939,0.355 -3.072,0.355 h -0.73 c -0.522,0 -1.029,0.188 -1.427,0.525 a 2.21,2.21 0 0 0 -0.744,1.328 l -0.055,0.299 -0.924,5.855 -0.042,0.215 c -0.011,0.068 -0.03,0.102 -0.058,0.125 a 0.155,0.155 0 0 1 -0.096,0.035 z" />
  <path style="fill:#179bd7" d="m 25.275545,8.5232874 c -0.028,0.179 -0.06,0.362 -0.096,0.55 -1.237,6.3509996 -5.469,8.5449996 -10.874,8.5449996 h -2.752 c -0.661,0 -1.218,0.48 -1.321,1.132 l -1.4090001,8.936 -0.399,2.533 a 0.704,0.704 0 0 0 0.695,0.814 h 4.8810001 c 0.578,0 1.069,-0.42 1.16,-0.99 l 0.048,-0.248 0.919,-5.832 0.059,-0.32 c 0.09,-0.572 0.582,-0.992 1.16,-0.992 h 0.73 c 4.729,0 8.431,-1.92 9.513,-7.476 0.452,-2.321 0.218,-4.259 -0.978,-5.6219996 a 4.667,4.667 0 0 0 -1.336,-1.03 z" />
  <path style="fill:#222d65" d="m 23.981545,8.0072874 a 9.757,9.757 0 0 0 -1.203,-0.267 15.284,15.284 0 0 0 -2.426,-0.177 h -7.352 a 1.172,1.172 0 0 0 -1.159,0.992 l -1.564,9.9059996 -0.045,0.289 a 1.336,1.336 0 0 1 1.321,-1.132 h 2.752 c 5.405,0 9.637,-2.195 10.874,-8.5449996 0.037,-0.188 0.068,-0.371 0.096,-0.55 a 6.594,6.594 0 0 0 -1.017,-0.429 9.045,9.045 0 0 0 -0.277,-0.087 z" />
  <path style="fill:#253b80" d="m 11.841545,8.5552874 a 1.169,1.169 0 0 1 1.159,-0.991 h 7.352 c 0.871,0 1.684,0.057 2.426,0.177 a 9.757,9.757 0 0 1 1.481,0.353 c 0.365,0.121 0.704,0.264 1.017,0.429 0.368,-2.347 -0.003,-3.945 -1.272,-5.392 -1.399,-1.593 -3.924,-2.27499997 -7.155,-2.27499997 H 7.4695449 c -0.66,0 -1.223,0.47999997 -1.325,1.13299997 l -3.907,24.7649996 a 0.806,0.806 0 0 0 0.795,0.932 h 5.791 l 1.4540001,-9.225 z" />
</svg>
