<?xml version="1.0" encoding="UTF-8" standalone="no"?>
<!-- Generator: Adobe Illustrator 19.2.1, SVG Export Plug-In . SVG Version: 6.00 Build 0)  -->

<svg
   xmlns:dc="http://purl.org/dc/elements/1.1/"
   xmlns:cc="http://creativecommons.org/ns#"
   xmlns:rdf="http://www.w3.org/1999/02/22-rdf-syntax-ns#"
   xmlns:svg="http://www.w3.org/2000/svg"
   xmlns="http://www.w3.org/2000/svg"
   xmlns:sodipodi="http://sodipodi.sourceforge.net/DTD/sodipodi-0.dtd"
   xmlns:inkscape="http://www.inkscape.org/namespaces/inkscape"
   version="1.1"
   id="layer"
   x="0px"
   y="0px"
   viewBox="0 0 32 32"
   xml:space="preserve"
   sodipodi:docname="zcash.svg"
   width="32"
   height="32"
   inkscape:version="0.92.4 (5da689c313, 2019-01-14)"><metadata
   id="metadata1697"><rdf:RDF><cc:Work
       rdf:about=""><dc:format>image/svg+xml</dc:format><dc:type
         rdf:resource="http://purl.org/dc/dcmitype/StillImage" /><dc:title></dc:title></cc:Work></rdf:RDF></metadata><defs
   id="defs1695" /><sodipodi:namedview
   pagecolor="#ffffff"
   bordercolor="#666666"
   borderopacity="1"
   objecttolerance="10"
   gridtolerance="10"
   guidetolerance="10"
   inkscape:pageopacity="0"
   inkscape:pageshadow="2"
   inkscape:window-width="1364"
   inkscape:window-height="734"
   id="namedview1693"
   showgrid="false"
   inkscape:zoom="4.095146"
   inkscape:cx="-20.283084"
   inkscape:cy="-4.6513376"
   inkscape:window-x="0"
   inkscape:window-y="18"
   inkscape:window-maximized="0"
   inkscape:current-layer="layer" />
<style
   type="text/css"
   id="style1674">
	.st0{fill:#F4B924;stroke:#FFFFFF;stroke-width:3.1299;stroke-miterlimit:10;}
</style>







<g
   id="g2245"
   transform="matrix(0.13104013,0,0,0.13104013,-25.480865,54.766557)"><path
     inkscape:connector-curvature="0"
     id="path1676"
     d="m 316.55085,-417.93729 c -67.3,0 -122.1,54.8 -122.1,122.1 0,67.3 54.8,122.1 122.1,122.1 67.3,0 122.1,-54.8 122.1,-122.1 0,-67.3 -54.7,-122.1 -122.1,-122.1 z" /><path
     style="fill:#f4b924;stroke:#ffffff;stroke-width:3.12989998;stroke-miterlimit:10"
     inkscape:connector-curvature="0"
     id="path1678"
     d="m 316.55085,-193.83729 c -56.2,0 -102,-45.7 -102,-102 0,-56.3 45.7,-101.9 102,-101.9 56.3,0 102,45.7 102,102 0,56.3 -45.7,101.9 -102,101.9 z"
     class="st0" /><polygon
     transform="translate(174.05085,-617.23729)"
     id="polygon1690"
     points="99,359.5 99,378.1 132.3,378.1 132.3,398.5 152.7,398.5 152.7,378.1 186.1,378.1 186.1,353.4 134.4,353.4 186.1,283.3 186.1,264.7 152.7,264.7 152.7,244.3 132.3,244.3 132.3,264.7 99,264.7 99,289.4 150.6,289.4 " /></g>
</svg>